<?xml version="1.0" encoding="utf-8"?>
<!-- Generator: Adobe Illustrator 18.0.0, SVG Export Plug-In . SVG Version: 6.00 Build 0)  -->
<!DOCTYPE svg PUBLIC "-//W3C//DTD SVG 1.1//EN" "http://www.w3.org/Graphics/SVG/1.1/DTD/svg11.dtd">
<svg version="1.1" id="Layer_1" xmlns="http://www.w3.org/2000/svg" xmlns:xlink="http://www.w3.org/1999/xlink" x="0px" y="0px"
	 viewBox="0 0 142.6 143.3" enable-background="new 0 0 142.6 143.3" xml:space="preserve">
<g>
	<g>
		<path fill="#58595B" d="M0.2,11.2h3.4v25.6h25.6V11.2h3.4v58.3h-3.4V39.8H3.6v29.6H0.2V11.2z"/>
		<path fill="#58595B" d="M44.1,47.9c0,6.9,0.1,19.8,10,19.8c9,0,10.5-9,10.5-12.2h3.1c0,6.5-3.6,14.9-13.2,14.9
			c-11,0-13.8-9-13.8-23.5c0-13.1,4.7-21.1,14.3-21.1c10,0,13.3,8.3,13.3,22.1H44.1z M64.8,45.2c0-7.8-1.2-16.6-10-16.6
			c-9.5,0-10.7,11-10.7,16.6H64.8z"/>
		<path fill="#58595B" d="M97.9,64.3c0,2,0.8,2.9,1.9,2.9c0.7,0,1.4-0.1,2-0.4v2.4c-0.7,0.5-1.9,0.7-3.3,0.7c-1.3,0-3.7-1.3-3.7-4.7
			v-2.7h-0.2c-1.2,4.4-5.5,7.8-11.2,7.8c-7.4,0-10.7-5.3-10.7-11.9c0-6.5,2.6-10.1,8.7-11.8l9.2-2.5c3.7-1,4.2-2.7,4.2-6.3
			c0-7.8-3.6-9.4-8.2-9.4c-7.2,0-9.3,4.5-9.3,10.4h-3.1c0-5.8,2.1-13.1,12.1-13.1c9.4,0,11.7,5.1,11.7,11.3V64.3z M94.8,44.6h-0.2
			c-1.1,1.7-2.2,2-5.4,2.9L83,49.2c-5,1.4-6.8,4.3-6.8,9.4c0,5.6,2.4,9.1,7.8,9.1c7.3,0,10.8-5.7,10.8-14.3V44.6z"/>
		<path fill="#58595B" d="M107,11.2h3.1v58.3H107V11.2z"/>
		<path fill="#58595B" d="M139.2,26.8h3.4l-13.2,49.1c-1.6,5.9-4.5,8-9.5,8c-1.1,0-2.1-0.1-3.2-0.2v-2.8c1.1,0.1,1.7,0.2,2.7,0.2
			c4,0,5.6-1.1,7.2-6.7l1.3-4.5l-12.6-43.1h3.4l10.8,38.3h0.2L139.2,26.8z"/>
	</g>
	<path fill="#58595B" d="M0.2,81.8H14v1.5H1.9v11.5h11.3v1.5H1.9v14.3H0.2V81.8z"/>
	<path fill="#58595B" d="M21.9,111.2c-5.6,0-7-5-7-11.1c0-6.1,1.4-11,7.2-11c5.6,0,7,5,7,11C29.1,106.2,27.8,111.2,21.9,111.2z
		 M22.1,90.4c-4,0-5.4,3.6-5.4,9.7c0,6.1,1.3,9.7,5.4,9.7c4,0,5.4-3.6,5.4-9.7C27.4,94,26.1,90.4,22.1,90.4z"/>
	<path fill="#58595B" d="M45.1,110.7h-1.5v-3.2h-0.1c-0.7,1.9-2.5,3.7-5.4,3.7c-3,0-5.3-1.7-5.3-5.7V89.6h1.5v15.2
		c0,3.8,1.6,5.1,4.2,5.1c3.2,0,5.1-3,5.1-6.7V89.6h1.5V110.7z"/>
	<path fill="#58595B" d="M49.2,89.6h1.5v3.2h0.1c0.7-1.9,2.5-3.7,5.4-3.7c3,0,5.3,1.7,5.3,5.7v15.9H60V95.5c0-3.8-1.6-5.1-4.2-5.1
		c-3.2,0-5.1,3-5.1,6.7v13.6h-1.5V89.6z"/>
	<path fill="#58595B" d="M77.1,106.6L77.1,106.6c-0.6,2.9-2.5,4.6-5.4,4.6c-4.9,0-6.6-4.6-6.6-11.1c0-6.5,1.5-11,6.7-11
		c2.9,0,4.5,1.9,5.3,4.2h0.1V81.8h1.5v28.9h-1.5V106.6z M72,109.8c3.8,0,5.2-3.6,5.2-9.7c0-7-2.1-9.6-5.3-9.6
		c-3.6,0-5.1,3.2-5.1,9.6C66.8,105.5,67.8,109.8,72,109.8z"/>
	<path fill="#58595B" d="M94.2,108.2c0,1,0.4,1.4,0.9,1.4c0.4,0,0.7,0,1-0.2v1.2c-0.3,0.2-0.9,0.4-1.6,0.4c-0.6,0-1.8-0.6-1.8-2.3
		v-1.3h-0.1c-0.6,2.2-2.7,3.9-5.5,3.9c-3.7,0-5.3-2.6-5.3-5.9c0-3.2,1.3-5,4.3-5.8l4.6-1.3c1.8-0.5,2.1-1.3,2.1-3.1
		c0-3.8-1.8-4.7-4.1-4.7c-3.6,0-4.6,2.2-4.6,5.1h-1.5c0-2.9,1.1-6.5,6-6.5c4.7,0,5.8,2.5,5.8,5.6V108.2z M92.7,98.4L92.7,98.4
		c-0.6,0.8-1.2,1-2.8,1.4l-3.1,0.8c-2.5,0.7-3.4,2.1-3.4,4.7c0,2.8,1.2,4.5,3.9,4.5c3.6,0,5.3-2.8,5.3-7.1V98.4z"/>
	<path fill="#58595B" d="M96.9,89.6h2.9v-6.3h1.5v6.3h3.5v1.4h-3.5v16.3c0,2,1,2.3,1.9,2.3c0.6,0,1.2,0,1.9-0.2v1.4
		c-0.8,0.2-1.6,0.2-2.2,0.2c-2.2,0-3.1-1.3-3.1-3.6V90.9h-2.9V89.6z"/>
	<path fill="#58595B" d="M107,81.8h1.5V86H107V81.8z M107,89.6h1.5v21.2H107V89.6z"/>
	<path fill="#58595B" d="M119.3,111.2c-5.6,0-7-5-7-11.1c0-6.1,1.4-11,7.2-11c5.6,0,7,5,7,11C126.5,106.2,125.1,111.2,119.3,111.2z
		 M119.4,90.4c-4,0-5.4,3.6-5.4,9.7c0,6.1,1.3,9.7,5.4,9.7c4,0,5.4-3.6,5.4-9.7C124.8,94,123.4,90.4,119.4,90.4z"/>
	<path fill="#58595B" d="M130.1,89.6h1.5v3.2h0.1c0.7-1.9,2.5-3.7,5.4-3.7c3,0,5.3,1.7,5.3,5.7v15.9h-1.5V95.5
		c0-3.8-1.6-5.1-4.2-5.1c-3.2,0-5.1,3-5.1,6.7v13.6h-1.5V89.6z"/>
</g>
<g>
	<path fill="#58595B" d="M0,130.4v-0.6h8.8v0.6h-4v10.9H4v-10.9H0z"/>
	<path fill="#58595B" d="M12.4,129.8l4.5,11.5h-0.8l-1.4-3.7H9.2l-1.5,3.7H7l4.6-11.5H12.4z M14.5,137l-2.5-6.5h0L9.4,137H14.5z"/>
	<path fill="#58595B" d="M22.2,141.5c-3.4,0-5.5-2.6-5.5-6c0-3.4,2-6,5.5-6c3.4,0,5.4,2.6,5.4,6C27.6,138.9,25.6,141.5,22.2,141.5z
		 M22.2,140.9c3,0,4.7-2.5,4.7-5.4s-1.8-5.4-4.7-5.4c-3,0-4.8,2.5-4.8,5.4S19.2,140.9,22.2,140.9z"/>
	<path fill="#58595B" d="M36.4,133.1c-0.1-2-1.6-2.9-3.7-2.9c-1.3,0-3.1,0.5-3.1,2.4c0,1.8,2,2.2,3.9,2.6c2,0.4,3.9,0.9,3.9,3.2
		c0,2.4-2.3,3.2-4,3.2c-2.7,0-4.9-1.1-4.8-4.1h0.7c-0.1,2.5,1.9,3.5,4.1,3.5c1.4,0,3.3-0.6,3.3-2.6c0-1.9-2-2.3-3.9-2.7
		c-1.9-0.4-3.9-0.9-3.9-3c0-2.2,2-3,3.9-3c2.4,0,4.3,1,4.4,3.5H36.4z"/>
	<path fill="#58595B" d="M39.2,142.8c0.5-0.2,0.5-1.1,0.5-1.5h-0.3v-1.7h0.8v1.7c0,0.9-0.2,1.7-1,2V142.8z"/>
	<path fill="#58595B" d="M47.5,129.8h0.9l7.2,10.5h0v-10.5h0.7v11.5h-0.8l-7.3-10.6h0v10.6h-0.7V129.8z"/>
	<path fill="#58595B" d="M66.2,140.7v0.6h-7.8v-11.5h7.7v0.6h-7v4.6h6.6v0.6h-6.6v5H66.2z"/>
	<path fill="#58595B" d="M66.7,129.8h0.7l3,10.7h0l3-10.7h0.9l3.1,10.7h0l2.9-10.7h0.8l-3.3,11.5h-0.8l-3.1-10.9h0l-3.1,10.9H70
		L66.7,129.8z"/>
	<path fill="#58595B" d="M86.6,129.8h1l4.5,10.7h0l4.4-10.7h1v11.5h-0.7v-10.6h0l-4.4,10.6h-0.7l-4.4-10.6h0v10.6h-0.7V129.8z"/>
	<path fill="#58595B" d="M107.4,140.7v0.6h-7.8v-11.5h7.7v0.6h-7v4.6h6.6v0.6h-6.6v5H107.4z"/>
	<path fill="#58595B" d="M108.1,129.8h0.8l3.6,5l3.7-5h0.8l-4,5.6l4.3,5.9h-0.9l-3.9-5.4l-3.9,5.4h-0.8l4.3-5.9L108.1,129.8z"/>
	<path fill="#58595B" d="M118.1,129.8h0.7v11.5h-0.7V129.8z"/>
	<path fill="#58595B" d="M129.7,133.2c-0.3-1.9-2-3.1-3.9-3.1c-3,0-4.8,2.5-4.8,5.4s1.7,5.4,4.8,5.4c2.2,0,4-2,4.1-4.1h0.7
		c-0.3,2.7-2.3,4.7-4.8,4.7c-3.4,0-5.5-2.6-5.5-6c0-3.4,2-6,5.5-6c4.1,0,4.6,3.5,4.6,3.7H129.7z"/>
	<path fill="#58595B" d="M137,141.5c-3.4,0-5.5-2.6-5.5-6c0-3.4,2-6,5.5-6c3.4,0,5.4,2.6,5.4,6C142.4,138.9,140.4,141.5,137,141.5z
		 M137,140.9c3,0,4.7-2.5,4.7-5.4s-1.8-5.4-4.7-5.4c-3,0-4.8,2.5-4.8,5.4S134,140.9,137,140.9z"/>
</g>
<line fill="none" stroke="#58595B" stroke-miterlimit="10" x1="0.2" y1="121.5" x2="142.4" y2="121.5"/>
<line fill="none" stroke="#58595B" stroke-miterlimit="10" x1="0.2" y1="0.5" x2="142.4" y2="0.5"/>
</svg>
